<?xml version="1.0" encoding="utf-8"?>
<!-- Svg Vector Icons : http://www.onlinewebfonts.com/icon -->
<!DOCTYPE svg PUBLIC "-//W3C//DTD SVG 1.1//EN" "http://www.w3.org/Graphics/SVG/1.1/DTD/svg11.dtd">
<svg version="1.1" xmlns="http://www.w3.org/2000/svg" xmlns:xlink="http://www.w3.org/1999/xlink" x="0px" y="0px" viewBox="0 0 256 256" enable-background="new 0 0 256 256" xml:space="preserve">
<metadata> Svg Vector Icons : http://www.onlinewebfonts.com/icon </metadata>
<g> <path fill="#000000" d="M114.7,139.8H128c0-5.9,1.5-13.3,3-22.1c1.5-8.8,5.9-16.2,8.8-23.6s8.9-13.3,11.8-17.7V66h-47.2v13.3h32.4 c-5.9,8.8-11.8,17.7-16.2,28C116.2,117.7,114.7,129.5,114.7,139.8z M74.9,163.4H156v5.9l28-7.4c1.5,0,1.5-3,0-4.4l-28-7.4v5.9H74.9 c-2.9,0-4.4,1.5-4.4,4.4C70.5,161.9,72,163.4,74.9,163.4z M72,182.6c-1.5,0-1.5,3,0,4.4l28,7.4v-5.9h81.1c3,0,4.4-1.5,4.4-4.4 s-1.5-4.4-4.4-4.4H100v-5.9L72,182.6z M128,10c-14.8,0-29.5,3-42.8,7.4c-1.5,1.5-1.5,3-1.5,4.4c0,1.5,3,3,4.4,1.5 c11.8-4.4,26.6-7.4,39.8-7.4c62,0,112.1,50.1,112.1,112.1S190,240.1,128,240.1S15.9,190,15.9,128c0-1.5-1.5-3-2.9-3 c-1.5,0-3,1.5-3,3c0,64.9,53.1,118,118,118c64.9,0,118-53.1,118-118C246,63.1,192.9,10,128,10z"/></g>
</svg>